{
	"asset":{
		"generator":"Khronos glTF Blender I/O v5.0.21",
		"version":"2.0"
	},
	"extensionsUsed":[
		"KHR_materials_specular",
		"KHR_materials_ior"
	],
	"scene":0,
	"scenes":[
		{
			"name":"Scene",
			"nodes":[
				0,
				4
			]
		}
	],
	"nodes":[
		{
			"camera":0,
			"name":"Camera",
			"rotation":[
				-0.20997299253940582,
				0.3857799470424652,
				0.09062844514846802,
				0.8937962055206299
			],
			"translation":[
				7.358891487121582,
				4.958309173583984,
				6.925790786743164
			]
		},
		{
			"mesh":0,
			"name":"Rock"
		},
		{
			"children":[
				1
			],
			"name":"g"
		},
		{
			"children":[
				2
			],
			"name":"Collada visual scene group",
			"rotation":[
				0.70710688829422,
				0,
				0,
				0.7071066498756409
			]
		},
		{
			"children":[
				3
			],
			"name":"Sketchfab_model",
			"rotation":[
				-0.70710688829422,
				0,
				0,
				0.7071066498756409
			]
		}
	],
	"cameras":[
		{
			"name":"Camera",
			"perspective":{
				"aspectRatio":1.7777777777777777,
				"yfov":0.39959652046304894,
				"zfar":100,
				"znear":0.10000000149011612
			},
			"type":"perspective"
		}
	],
	"materials":[
		{
			"doubleSided":true,
			"extensions":{
				"KHR_materials_specular":{
					"specularColorTexture":{
						"index":0
					}
				},
				"KHR_materials_ior":{
					"ior":1000
				}
			},
			"name":"1001",
			"normalTexture":{
				"index":1
			},
			"occlusionTexture":{
				"index":2
			},
			"pbrMetallicRoughness":{
				"baseColorTexture":{
					"index":3
				},
				"metallicFactor":0,
				"metallicRoughnessTexture":{
					"index":2
				}
			}
		}
	],
	"meshes":[
		{
			"name":"defaultMaterial",
			"primitives":[
				{
					"attributes":{
						"POSITION":0,
						"NORMAL":1,
						"TEXCOORD_0":2,
						"TANGENT":3
					},
					"indices":4,
					"material":0
				}
			]
		}
	],
	"textures":[
		{
			"sampler":0,
			"source":0
		},
		{
			"sampler":0,
			"source":1
		},
		{
			"sampler":0,
			"source":2
		},
		{
			"sampler":0,
			"source":3
		}
	],
	"images":[
		{
			"mimeType":"image/png",
			"name":"1001_specularGlossiness",
			"uri":"1001_specularGlossiness.png"
		},
		{
			"mimeType":"image/png",
			"name":"1001_normal",
			"uri":"1001_normal.png"
		},
		{
			"mimeType":"image/png",
			"name":"1001_occlusion-1001_specularGlossiness.png",
			"uri":"1001_occlusion-1001_specularGlossiness.png.png"
		},
		{
			"mimeType":"image/jpeg",
			"name":"1001_diffuse",
			"uri":"1001_diffuse.jpg"
		}
	],
	"accessors":[
		{
			"bufferView":0,
			"componentType":5126,
			"count":667,
			"max":[
				1,
				0.7259420156478882,
				0.9523339867591858
			],
			"min":[
				-1,
				-0.7259420156478882,
				-0.9523339867591858
			],
			"type":"VEC3"
		},
		{
			"bufferView":1,
			"componentType":5126,
			"count":667,
			"type":"VEC3"
		},
		{
			"bufferView":2,
			"componentType":5126,
			"count":667,
			"type":"VEC2"
		},
		{
			"bufferView":3,
			"componentType":5126,
			"count":667,
			"type":"VEC4"
		},
		{
			"bufferView":4,
			"componentType":5123,
			"count":3582,
			"type":"SCALAR"
		}
	],
	"bufferViews":[
		{
			"buffer":0,
			"byteLength":8004,
			"byteOffset":0,
			"target":34962
		},
		{
			"buffer":0,
			"byteLength":8004,
			"byteOffset":8004,
			"target":34962
		},
		{
			"buffer":0,
			"byteLength":5336,
			"byteOffset":16008,
			"target":34962
		},
		{
			"buffer":0,
			"byteLength":10672,
			"byteOffset":21344,
			"target":34962
		},
		{
			"buffer":0,
			"byteLength":7164,
			"byteOffset":32016,
			"target":34963
		}
	],
	"samplers":[
		{
			"magFilter":9729,
			"minFilter":9987
		}
	],
	"buffers":[
		{
			"byteLength":39180,
			"uri":"rock.bin"
		}
	]
}
