{
	"asset":{
		"generator":"Khronos glTF Blender I/O v5.0.21",
		"version":"2.0"
	},
	"scene":0,
	"scenes":[
		{
			"name":"Scene",
			"nodes":[
				0,
				1,
				3
			]
		}
	],
	"nodes":[
		{
			"camera":0,
			"name":"Camera",
			"rotation":[
				-0.20997299253940582,
				0.3857799470424652,
				0.09062844514846802,
				0.8937962055206299
			],
			"translation":[
				7.358891487121582,
				4.958309173583984,
				6.925790786743164
			]
		},
		{
			"name":"Object_4",
			"translation":[
				-44.801368713378906,
				340.07598876953125,
				13.907699584960938
			]
		},
		{
			"mesh":0,
			"name":"Object_5.001",
			"scale":[
				0.024195775389671326,
				0.024195775389671326,
				0.024195775389671326
			],
			"translation":[
				45.07536697387695,
				-339.72735595703125,
				-13.578937530517578
			]
		},
		{
			"children":[
				2
			],
			"name":"Object_4.001",
			"translation":[
				-44.801368713378906,
				340.07598876953125,
				13.907699584960938
			]
		}
	],
	"cameras":[
		{
			"name":"Camera",
			"perspective":{
				"aspectRatio":1.7777777777777777,
				"yfov":0.39959652046304894,
				"zfar":100,
				"znear":0.10000000149011612
			},
			"type":"perspective"
		}
	],
	"materials":[
		{
			"doubleSided":true,
			"name":"Material_46.001",
			"pbrMetallicRoughness":{
				"baseColorTexture":{
					"index":0
				},
				"metallicFactor":0,
				"roughnessFactor":0.6000000238418579
			}
		}
	],
	"meshes":[
		{
			"name":"Object_0.001",
			"primitives":[
				{
					"attributes":{
						"POSITION":0,
						"NORMAL":1,
						"TEXCOORD_0":2
					},
					"indices":3,
					"material":0
				}
			]
		}
	],
	"textures":[
		{
			"sampler":0,
			"source":0
		}
	],
	"images":[
		{
			"mimeType":"image/png",
			"name":"hand",
			"uri":"hand.png"
		}
	],
	"accessors":[
		{
			"bufferView":0,
			"componentType":5126,
			"count":1578,
			"max":[
				35.647186279296875,
				45.583953857421875,
				34.55519104003906
			],
			"min":[
				-22.47698974609375,
				-49.946136474609375,
				-27.812789916992188
			],
			"type":"VEC3"
		},
		{
			"bufferView":1,
			"componentType":5126,
			"count":1578,
			"type":"VEC3"
		},
		{
			"bufferView":2,
			"componentType":5126,
			"count":1578,
			"type":"VEC2"
		},
		{
			"bufferView":3,
			"componentType":5123,
			"count":2358,
			"type":"SCALAR"
		}
	],
	"bufferViews":[
		{
			"buffer":0,
			"byteLength":18936,
			"byteOffset":0,
			"target":34962
		},
		{
			"buffer":0,
			"byteLength":18936,
			"byteOffset":18936,
			"target":34962
		},
		{
			"buffer":0,
			"byteLength":12624,
			"byteOffset":37872,
			"target":34962
		},
		{
			"buffer":0,
			"byteLength":4716,
			"byteOffset":50496,
			"target":34963
		}
	],
	"samplers":[
		{
			"magFilter":9729,
			"minFilter":9987
		}
	],
	"buffers":[
		{
			"byteLength":55212,
			"uri":"hand.bin"
		}
	]
}
